<svg width="437" height="97" viewBox="0 0 437 97" fill="none" xmlns="http://www.w3.org/2000/svg">
<path d="M154.081 96.0052V-1.64884e-06Z" fill="white"/>
<path d="M154.081 96.0052V-1.64884e-06" stroke="white" stroke-width="1.00082"/>
<path d="M76.0625 23.1644C74.0469 23.279 72.5938 23.5133 71.7083 23.8727C70.8333 24.2217 70.2292 24.904 69.8958 25.9144C69.5729 26.9144 69.4167 28.5342 69.4167 30.7686V74.6852C69.4167 76.9352 69.5729 78.5602 69.8958 79.5602C70.2292 80.5602 70.8438 81.2425 71.75 81.6019C72.6667 81.9508 74.1042 82.1852 76.0625 82.3102V84.0811C72.8125 83.904 68.1719 83.8102 62.1458 83.8102C55.8385 83.8102 51.1771 83.904 48.1667 84.0811V82.3102C50.2917 82.1852 51.8385 81.9508 52.8125 81.6019C53.7813 81.2425 54.4427 80.5602 54.7917 79.5602C55.151 78.5602 55.3333 76.9352 55.3333 74.6852V28.3936L34 84.1644H32.5833L8.66667 27.1436V69.5602C8.66667 73.0498 8.83854 75.6019 9.1875 77.2269C9.54687 78.8415 10.3177 80.0186 11.5 80.7686C12.6771 81.5081 14.6042 82.0186 17.2708 82.3102V84.0811C14.9635 83.904 11.776 83.8102 7.70833 83.8102C4.45833 83.8102 1.88542 83.904 0 84.0811V82.3102C1.94271 82.0186 3.375 81.5186 4.29167 80.8102C5.20833 80.1019 5.82292 78.9873 6.14583 77.4561C6.47917 75.9144 6.64583 73.6383 6.64583 70.6227V30.7686C6.64583 28.5342 6.47917 26.9144 6.14583 25.9144C5.82292 24.904 5.20833 24.2217 4.29167 23.8727C3.375 23.5133 1.94271 23.279 0 23.1644V21.3936C1.88542 21.5758 4.45833 21.6644 7.70833 21.6644C13.1354 21.6644 17.7969 21.5758 21.6875 21.3936L39.5833 64.5186L55.875 21.6644H62.1458C68.1719 21.6644 72.8125 21.5758 76.0625 21.3936V23.1644Z" fill="white"/>
<path d="M139.364 80.1852C137.765 82.0186 136.051 83.3311 134.218 84.1227C132.395 84.9248 130.187 85.3311 127.593 85.3311C124.161 85.3311 121.458 84.6071 119.489 83.1644C117.515 81.7061 116.228 79.2373 115.635 75.7477L114.051 66.8936C113.27 62.5915 112.333 59.4248 111.239 57.3936C110.155 55.3519 108.343 54.3311 105.801 54.3311H100.051V74.6852C100.051 76.9352 100.208 78.5602 100.53 79.5602C100.864 80.5602 101.468 81.2425 102.343 81.6019C103.228 81.9508 104.682 82.1852 106.697 82.3102V84.0811C103.499 83.904 99.0409 83.8102 93.3221 83.8102C86.9992 83.8102 82.343 83.904 79.343 84.0811V82.3102C81.2857 82.1852 82.718 81.9508 83.6346 81.6019C84.5513 81.2425 85.1659 80.5602 85.4888 79.5602C85.8065 78.5602 85.968 76.9352 85.968 74.6852V30.7686C85.968 28.5342 85.8065 26.9144 85.4888 25.9144C85.1659 24.904 84.5513 24.2217 83.6346 23.8727C82.718 23.5133 81.2857 23.279 79.343 23.1644V21.3936C82.343 21.5758 86.8273 21.6644 92.8013 21.6644L102.614 21.5602C103.791 21.5081 105.155 21.4769 106.697 21.4769C114.833 21.4769 120.952 22.8102 125.051 25.4769C129.161 28.1331 131.218 31.9352 131.218 36.8936C131.218 41.0758 129.682 44.7633 126.614 47.9561C123.541 51.1383 118.468 53.1436 111.385 53.9769C116.702 54.4508 120.661 55.6019 123.26 57.4352C125.853 59.2581 127.536 61.9977 128.301 65.6644L130.343 74.7894C130.812 77.154 131.353 78.805 131.968 79.7477C132.593 80.6956 133.468 81.1644 134.593 81.1644C135.301 81.0967 135.905 80.9144 136.405 80.6227C136.905 80.3311 137.478 79.8311 138.135 79.1227L139.364 80.1852ZM105.551 23.1644C103.952 23.1644 102.786 23.3727 102.051 23.7894C101.312 24.1956 100.791 24.93 100.489 25.9977C100.197 27.055 100.051 28.6436 100.051 30.7686V52.5602H103.864C108.697 52.5602 112.015 51.279 113.822 48.7061C115.624 46.1383 116.53 42.5186 116.53 37.8519C116.53 33.0186 115.666 29.3675 113.947 26.8936C112.239 24.4092 109.437 23.1644 105.551 23.1644Z" fill="white"/>
<path d="M176.397 41.2894C177.048 41.2894 177.569 41.3623 177.959 41.4977C178.345 41.6384 178.74 41.8467 179.147 42.1227C179.48 42.3311 179.735 42.4352 179.917 42.4352C180.053 42.4352 180.157 42.3623 180.23 42.2061C180.313 42.0394 180.376 41.7842 180.417 41.4352H180.938C180.865 42.3102 180.834 43.8519 180.834 46.0602H180.313C180.214 44.8415 179.86 43.8102 179.251 42.9769C178.636 42.1331 177.751 41.7061 176.584 41.7061C175.777 41.7061 175.115 41.9561 174.605 42.4561C174.089 42.9456 173.834 43.5759 173.834 44.3519C173.834 44.9248 173.964 45.4248 174.23 45.8519C174.49 46.2686 174.824 46.6331 175.23 46.9352C175.631 47.2269 176.214 47.6123 176.98 48.0811L177.626 48.4977C178.584 49.0811 179.334 49.5967 179.876 50.0394C180.428 50.4873 180.876 50.9977 181.209 51.5811C181.542 52.154 181.709 52.8259 181.709 53.6019C181.709 54.9769 181.256 56.0394 180.355 56.7894C179.449 57.529 178.303 57.8936 176.917 57.8936C176.178 57.8936 175.584 57.8154 175.126 57.6644C174.667 57.5134 174.22 57.3102 173.792 57.0602C173.47 56.8519 173.22 56.7477 173.042 56.7477C172.902 56.7477 172.792 56.8311 172.709 56.9977C172.636 57.154 172.584 57.404 172.542 57.7477H172.022C172.074 56.9144 172.105 55.0967 172.105 52.2894H172.626C172.735 53.8207 173.11 55.0602 173.751 56.0186C174.402 56.9665 175.402 57.4352 176.751 57.4352C177.569 57.4352 178.261 57.1852 178.834 56.6852C179.402 56.1852 179.688 55.4352 179.688 54.4352C179.688 53.5915 179.402 52.8727 178.834 52.2894C178.277 51.6957 177.386 51.029 176.167 50.2894C175.261 49.7373 174.532 49.2477 173.98 48.8311C173.438 48.4144 172.99 47.9092 172.647 47.3102C172.298 46.7165 172.126 46.0134 172.126 45.2061C172.126 43.9456 172.527 42.9769 173.334 42.3102C174.152 41.6331 175.173 41.2894 176.397 41.2894Z" fill="white"/>
<path d="M191.235 41.2061C192.662 41.2061 193.923 41.5342 195.006 42.1852C196.089 42.8415 196.928 43.7842 197.527 45.0186C198.121 46.2425 198.423 47.7061 198.423 49.4144C198.423 51.0811 198.11 52.5602 197.485 53.8519C196.871 55.1331 196.016 56.1227 194.923 56.8311C193.839 57.5394 192.6 57.8936 191.214 57.8936C189.766 57.8936 188.506 57.5758 187.423 56.9352C186.35 56.2842 185.516 55.3415 184.923 54.1019C184.324 52.8675 184.027 51.3936 184.027 49.6852C184.027 48.0342 184.329 46.5706 184.943 45.2894C185.553 43.9977 186.407 42.9977 187.506 42.2894C188.6 41.5706 189.845 41.2061 191.235 41.2061ZM191.131 41.6227C190.173 41.6227 189.324 41.9665 188.589 42.6436C187.85 43.3102 187.282 44.2477 186.881 45.4561C186.475 46.6644 186.277 48.0498 186.277 49.6019C186.277 51.1748 186.496 52.555 186.943 53.7477C187.402 54.9456 188.006 55.8675 188.756 56.5186C189.506 57.1748 190.35 57.4977 191.298 57.4977C192.266 57.4977 193.115 57.1644 193.839 56.4977C194.574 55.8206 195.141 54.8727 195.548 53.6644C195.949 52.4561 196.152 51.0758 196.152 49.5186C196.152 47.9508 195.928 46.5706 195.485 45.3727C195.037 44.18 194.433 43.2581 193.673 42.6019C192.923 41.9508 192.074 41.6227 191.131 41.6227Z" fill="white"/>
<path d="M206.336 41.9769C205.794 42.0186 205.398 42.0915 205.148 42.1852C204.898 42.2686 204.721 42.4456 204.628 42.7061C204.544 42.9561 204.503 43.3675 204.503 43.9352V55.1852C204.503 55.7581 204.544 56.1748 204.628 56.4352C204.721 56.6852 204.898 56.8519 205.148 56.9352C205.398 57.0186 205.794 57.0602 206.336 57.0602H208.003C208.93 57.0602 209.638 56.93 210.128 56.6644C210.628 56.404 210.987 55.9769 211.211 55.3936C211.43 54.7998 211.596 53.9457 211.711 52.8311H212.232C212.19 53.2894 212.169 53.9092 212.169 54.6852C212.169 55.5498 212.216 56.5134 212.315 57.5811C211.284 57.5394 209.555 57.5186 207.128 57.5186C204.221 57.5186 202.034 57.5394 200.565 57.5811V57.1227C201.107 57.0967 201.503 57.0394 201.753 56.9561C202.003 56.8623 202.169 56.6852 202.253 56.4352C202.346 56.1748 202.398 55.7581 202.398 55.1852V43.9352C202.398 43.3675 202.346 42.9561 202.253 42.7061C202.169 42.4456 202.003 42.2686 201.753 42.1852C201.503 42.0915 201.107 42.0186 200.565 41.9769V41.5394C201.19 41.5811 202.154 41.6019 203.461 41.6019C204.669 41.6019 205.628 41.5811 206.336 41.5394V41.9769Z" fill="white"/>
<path d="M227.783 41.9769C227.251 42.0186 226.856 42.1019 226.595 42.2269C226.345 42.3519 226.168 42.5706 226.074 42.8727C225.991 43.1644 225.949 43.5967 225.949 44.1644V50.9769C225.949 52.0759 225.871 53.0134 225.72 53.7894C225.58 54.5707 225.345 55.2373 225.012 55.7894C224.637 56.4457 224.08 56.9561 223.345 57.3311C222.606 57.7061 221.783 57.8936 220.866 57.8936C219.199 57.8936 217.929 57.4873 217.054 56.6644C216.387 56.055 215.939 55.3623 215.72 54.5811C215.496 53.7894 215.387 52.6175 215.387 51.0602V43.9352C215.387 43.3675 215.335 42.9561 215.241 42.7061C215.142 42.4456 214.97 42.2686 214.72 42.1852C214.481 42.0915 214.085 42.0186 213.533 41.9769V41.5394C214.168 41.5811 215.142 41.6019 216.449 41.6019C217.668 41.6019 218.626 41.5811 219.324 41.5394V41.9769C218.783 42.0186 218.387 42.0915 218.137 42.1852C217.887 42.2686 217.71 42.4456 217.616 42.7061C217.533 42.9561 217.491 43.3675 217.491 43.9352V51.4352C217.491 52.6436 217.574 53.654 217.741 54.4561C217.908 55.2634 218.246 55.9092 218.762 56.3936C219.288 56.8675 220.059 57.1019 221.074 57.1019C222.668 57.1019 223.788 56.5915 224.429 55.5602C225.08 54.5342 225.408 53.0915 225.408 51.2269V44.1644C225.408 43.3467 225.262 42.7894 224.97 42.4977C224.679 42.1956 224.137 42.0186 223.345 41.9769V41.5394C223.897 41.5811 224.668 41.6019 225.658 41.6019C226.574 41.6019 227.283 41.5811 227.783 41.5394V41.9769Z" fill="white"/>
<path d="M236.797 41.2061C237.698 41.2061 238.463 41.3415 239.088 41.6019C239.724 41.8519 240.349 42.2165 240.963 42.6852C241.13 42.8258 241.276 42.8936 241.401 42.8936C241.693 42.8936 241.885 42.4456 241.984 41.5394H242.505C242.432 42.5133 242.401 44.2477 242.401 46.7477H241.88C241.713 45.7633 241.557 45.055 241.422 44.6227C241.297 44.1956 241.073 43.7842 240.755 43.3936C240.297 42.7998 239.713 42.3519 239.005 42.0602C238.307 41.7686 237.552 41.6227 236.734 41.6227C235.76 41.6227 234.906 41.9508 234.172 42.6019C233.432 43.2581 232.859 44.1852 232.443 45.3936C232.036 46.5915 231.838 47.9925 231.838 49.6019C231.838 51.2581 232.057 52.6748 232.505 53.8519C232.948 55.0186 233.557 55.9092 234.338 56.5186C235.114 57.1331 235.989 57.4352 236.963 57.4352C237.724 57.4352 238.463 57.2998 239.172 57.0186C239.88 56.7269 240.432 56.2998 240.838 55.7269C241.141 55.2998 241.364 54.8467 241.505 54.3727C241.641 53.8883 241.766 53.1436 241.88 52.1436H242.401C242.401 54.7425 242.432 56.555 242.505 57.5811H241.984C241.943 57.0967 241.88 56.7581 241.797 56.5602C241.713 56.3519 241.594 56.2477 241.443 56.2477C241.318 56.2477 241.156 56.3102 240.963 56.4352C240.281 56.9092 239.63 57.2686 239.005 57.5186C238.391 57.7686 237.651 57.8936 236.776 57.8936C235.328 57.8936 234.068 57.5758 232.984 56.9352C231.911 56.2842 231.078 55.3415 230.484 54.1019C229.885 52.8675 229.588 51.3936 229.588 49.6852C229.588 48.0342 229.891 46.5706 230.505 45.2894C231.114 43.9977 231.969 42.9977 233.068 42.2894C234.161 41.5706 235.406 41.2061 236.797 41.2061ZM236.526 59.2061C236.969 59.1071 237.411 59.0602 237.859 59.0602C238.276 59.0602 238.609 59.1488 238.859 59.3311C239.109 59.5238 239.234 59.7894 239.234 60.1227C239.234 60.6904 238.969 61.1227 238.443 61.4144C237.911 61.7061 237.323 61.8519 236.672 61.8519C235.922 61.8519 235.297 61.7686 234.797 61.6019L234.88 61.1852C235.198 61.2269 235.489 61.2477 235.755 61.2477C236.297 61.2477 236.766 61.1644 237.172 60.9977C237.573 60.8415 237.776 60.5863 237.776 60.2269C237.776 59.8102 237.463 59.6019 236.838 59.6019C236.406 59.6019 236.031 59.6488 235.713 59.7477L236.484 57.4769H237.109L236.526 59.2061Z" fill="white"/>
<path d="M252.384 41.2061C253.811 41.2061 255.072 41.5342 256.155 42.1852C257.238 42.8415 258.077 43.7842 258.676 45.0186C259.27 46.2425 259.572 47.7061 259.572 49.4144C259.572 51.0811 259.259 52.5602 258.634 53.8519C258.02 55.1331 257.165 56.1227 256.072 56.8311C254.988 57.5394 253.749 57.8936 252.363 57.8936C250.915 57.8936 249.655 57.5758 248.572 56.9352C247.499 56.2842 246.665 55.3415 246.072 54.1019C245.473 52.8675 245.176 51.3936 245.176 49.6852C245.176 48.0342 245.478 46.5706 246.093 45.2894C246.702 43.9977 247.556 42.9977 248.655 42.2894C249.749 41.5706 250.994 41.2061 252.384 41.2061ZM252.28 41.6227C251.322 41.6227 250.473 41.9665 249.738 42.6436C248.999 43.3102 248.431 44.2477 248.03 45.4561C247.624 46.6644 247.426 48.0498 247.426 49.6019C247.426 51.1748 247.645 52.555 248.093 53.7477C248.551 54.9456 249.155 55.8675 249.905 56.5186C250.655 57.1748 251.499 57.4977 252.447 57.4977C253.415 57.4977 254.264 57.1644 254.988 56.4977C255.723 55.8206 256.29 54.8727 256.697 53.6644C257.098 52.4561 257.301 51.0758 257.301 49.5186C257.301 47.9508 257.077 46.5706 256.634 45.3727C256.186 44.18 255.582 43.2581 254.822 42.6019C254.072 41.9508 253.223 41.6227 252.28 41.6227ZM250.488 37.1436C250.863 37.1436 251.218 37.2217 251.551 37.3727C251.884 37.5133 252.285 37.7373 252.759 38.0394C253.285 38.3467 253.686 38.5602 253.968 38.6852C254.244 38.8102 254.551 38.8727 254.884 38.8727C255.577 38.8727 256.051 38.4508 256.301 37.6019L256.634 37.6852C256.577 38.4092 256.306 38.9925 255.822 39.4352C255.332 39.8675 254.764 40.0811 254.113 40.0811C253.738 40.0811 253.384 40.0081 253.051 39.8519C252.718 39.7008 252.311 39.4769 251.843 39.1852C251.311 38.8831 250.91 38.6644 250.634 38.5394C250.353 38.404 250.051 38.3311 249.718 38.3311C249.369 38.3311 249.082 38.43 248.863 38.6227C248.639 38.805 248.457 39.1331 248.322 39.6019L247.968 39.5394C248.035 38.8206 248.306 38.2425 248.78 37.8102C249.264 37.3675 249.832 37.1436 250.488 37.1436Z" fill="white"/>
<path d="M273.318 54.6852C273.318 55.5498 273.365 56.5134 273.464 57.5811C272.433 57.5394 270.704 57.5186 268.277 57.5186C265.37 57.5186 263.183 57.5394 261.714 57.5811V57.1227C262.256 57.0967 262.652 57.0394 262.902 56.9561C263.152 56.8623 263.318 56.6852 263.402 56.4352C263.495 56.1748 263.547 55.7581 263.547 55.1852V43.9352C263.547 43.3675 263.495 42.9561 263.402 42.7061C263.318 42.4456 263.152 42.2686 262.902 42.1852C262.652 42.0915 262.256 42.0186 261.714 41.9769V41.5394C263.183 41.5811 265.37 41.6019 268.277 41.6019C270.495 41.6019 272.079 41.5811 273.027 41.5394C272.912 42.5394 272.86 43.43 272.86 44.2061C272.86 44.805 272.881 45.279 272.922 45.6227H272.402C272.303 44.6384 272.172 43.9092 272.006 43.4352C271.839 42.9509 271.553 42.6019 271.152 42.3936C270.761 42.1748 270.162 42.0602 269.36 42.0602H267.485C266.943 42.0602 266.547 42.1019 266.297 42.1852C266.047 42.2686 265.87 42.4456 265.777 42.7061C265.693 42.9561 265.652 43.3675 265.652 43.9352V49.2894H267.152C267.678 49.2894 268.079 49.1644 268.36 48.9144C268.652 48.6644 268.844 48.3727 268.943 48.0394C269.037 47.6956 269.12 47.2634 269.193 46.7477L269.256 46.2894H269.777C269.735 46.93 269.714 47.6384 269.714 48.4144V49.5186C269.714 50.2842 269.756 51.3519 269.839 52.7269H269.318C269.303 52.6331 269.256 52.2686 269.172 51.6436C269.1 51.0081 268.891 50.5342 268.547 50.2269C268.214 49.9092 267.745 49.7477 267.152 49.7477H265.652V55.1852C265.652 55.7581 265.693 56.1748 265.777 56.4352C265.87 56.6852 266.047 56.8519 266.297 56.9352C266.547 57.0186 266.943 57.0602 267.485 57.0602H269.152C270.079 57.0602 270.787 56.9352 271.277 56.6852C271.777 56.4352 272.136 56.0394 272.36 55.4977C272.579 54.9457 272.745 54.1227 272.86 53.0394H273.381C273.339 53.4561 273.318 54.0081 273.318 54.6852Z" fill="white"/>
<path d="M280.366 41.2894C281.017 41.2894 281.538 41.3623 281.928 41.4977C282.314 41.6384 282.71 41.8467 283.116 42.1227C283.449 42.3311 283.704 42.4352 283.887 42.4352C284.022 42.4352 284.126 42.3623 284.199 42.2061C284.283 42.0394 284.345 41.7842 284.387 41.4352H284.908C284.835 42.3102 284.803 43.8519 284.803 46.0602H284.283C284.184 44.8415 283.829 43.8102 283.22 42.9769C282.605 42.1331 281.72 41.7061 280.553 41.7061C279.746 41.7061 279.085 41.9561 278.574 42.4561C278.059 42.9456 277.803 43.5759 277.803 44.3519C277.803 44.9248 277.934 45.4248 278.199 45.8519C278.46 46.2686 278.793 46.6331 279.199 46.9352C279.6 47.2269 280.184 47.6123 280.949 48.0811L281.595 48.4977C282.553 49.0811 283.303 49.5967 283.845 50.0394C284.397 50.4873 284.845 50.9977 285.178 51.5811C285.512 52.154 285.678 52.8259 285.678 53.6019C285.678 54.9769 285.225 56.0394 284.324 56.7894C283.418 57.529 282.272 57.8936 280.887 57.8936C280.147 57.8936 279.553 57.8154 279.095 57.6644C278.637 57.5134 278.189 57.3102 277.762 57.0602C277.439 56.8519 277.189 56.7477 277.012 56.7477C276.871 56.7477 276.762 56.8311 276.678 56.9977C276.605 57.154 276.553 57.404 276.512 57.7477H275.991C276.043 56.9144 276.074 55.0967 276.074 52.2894H276.595C276.704 53.8207 277.079 55.0602 277.72 56.0186C278.371 56.9665 279.371 57.4352 280.72 57.4352C281.538 57.4352 282.23 57.1852 282.803 56.6852C283.371 56.1852 283.658 55.4352 283.658 54.4352C283.658 53.5915 283.371 52.8727 282.803 52.2894C282.246 51.6957 281.355 51.029 280.137 50.2894C279.23 49.7373 278.501 49.2477 277.949 48.8311C277.408 48.4144 276.96 47.9092 276.616 47.3102C276.267 46.7165 276.095 46.0134 276.095 45.2061C276.095 43.9456 276.496 42.9769 277.303 42.3102C278.121 41.6331 279.142 41.2894 280.366 41.2894Z" fill="white"/>
<path d="M304.7 41.5394C304.585 42.6123 304.533 43.5759 304.533 44.4352C304.533 45.1852 304.554 45.805 304.596 46.2894H304.075C303.96 45.1227 303.809 44.2634 303.617 43.7061C303.434 43.1384 303.117 42.7217 302.658 42.4561C302.21 42.1956 301.523 42.0602 300.596 42.0602H299.158C298.617 42.0602 298.221 42.1019 297.971 42.1852C297.721 42.2686 297.544 42.4456 297.45 42.7061C297.367 42.9561 297.325 43.3675 297.325 43.9352V49.5186H298.971C299.512 49.5186 299.919 49.3936 300.2 49.1436C300.492 48.8936 300.684 48.6019 300.783 48.2686C300.877 47.9248 300.955 47.4925 301.012 46.9769L301.096 46.5186H301.617C301.559 47.1592 301.533 47.8675 301.533 48.6436V49.7477C301.533 50.5134 301.58 51.5811 301.679 52.9561H301.158C301.143 52.8467 301.096 52.4769 301.012 51.8519C300.94 51.2269 300.731 50.7581 300.387 50.4352C300.054 50.1175 299.58 49.9561 298.971 49.9561H297.325V55.1852C297.325 55.7581 297.377 56.1748 297.492 56.4352C297.617 56.6852 297.83 56.8623 298.137 56.9561C298.44 57.0394 298.934 57.0967 299.617 57.1227V57.5811C298.825 57.5394 297.71 57.5186 296.283 57.5186C294.976 57.5186 294.012 57.5394 293.387 57.5811V57.1227C293.929 57.0967 294.325 57.0394 294.575 56.9561C294.825 56.8623 294.992 56.6852 295.075 56.4352C295.169 56.1748 295.221 55.7581 295.221 55.1852V43.9352C295.221 43.3675 295.169 42.9561 295.075 42.7061C294.992 42.4456 294.825 42.2686 294.575 42.1852C294.325 42.0915 293.929 42.0186 293.387 41.9769V41.5394C294.856 41.5811 297.044 41.6019 299.95 41.6019C302.169 41.6019 303.752 41.5811 304.7 41.5394Z" fill="white"/>
<path d="M312.05 41.9769C311.508 42.0186 311.112 42.0915 310.862 42.1852C310.612 42.2686 310.435 42.4456 310.341 42.7061C310.258 42.9561 310.216 43.3675 310.216 43.9352V55.1852C310.216 55.7581 310.258 56.1748 310.341 56.4352C310.435 56.6852 310.612 56.8623 310.862 56.9561C311.112 57.0394 311.508 57.0967 312.05 57.1227V57.5811C311.352 57.5394 310.393 57.5186 309.175 57.5186C307.867 57.5186 306.904 57.5394 306.279 57.5811V57.1227C306.821 57.0967 307.216 57.0394 307.466 56.9561C307.716 56.8623 307.883 56.6852 307.966 56.4352C308.06 56.1748 308.112 55.7581 308.112 55.1852V43.9352C308.112 43.3675 308.06 42.9561 307.966 42.7061C307.883 42.4456 307.716 42.2686 307.466 42.1852C307.216 42.0915 306.821 42.0186 306.279 41.9769V41.5394C306.904 41.5811 307.867 41.6019 309.175 41.6019C310.383 41.6019 311.341 41.5811 312.05 41.5394V41.9769Z" fill="white"/>
<path d="M328.188 41.9769C327.657 42.0186 327.261 42.1019 327.001 42.2269C326.751 42.3519 326.574 42.5706 326.48 42.8727C326.397 43.1644 326.355 43.5967 326.355 44.1644V57.6852H325.834L316.313 42.9769V54.9561C316.313 55.5394 316.36 55.9769 316.459 56.2686C316.553 56.5602 316.741 56.7686 317.022 56.8936C317.313 57.0186 317.761 57.0967 318.376 57.1227V57.5811C317.834 57.5394 317.063 57.5186 316.063 57.5186C315.157 57.5186 314.459 57.5394 313.959 57.5811V57.1227C314.485 57.0967 314.876 57.0186 315.126 56.8936C315.386 56.7686 315.563 56.5602 315.647 56.2686C315.741 55.9665 315.793 55.529 315.793 54.9561V43.9352C315.793 43.3675 315.741 42.9561 315.647 42.7061C315.563 42.4456 315.397 42.2686 315.147 42.1852C314.897 42.0915 314.501 42.0186 313.959 41.9769V41.5394C314.459 41.5811 315.157 41.6019 316.063 41.6019C316.741 41.6019 317.334 41.5811 317.834 41.5394L325.834 53.8727V44.1644C325.834 43.5706 325.782 43.1331 325.688 42.8519C325.589 42.5602 325.397 42.3519 325.105 42.2269C324.813 42.1019 324.366 42.0186 323.772 41.9769V41.5394C324.313 41.5811 325.084 41.6019 326.084 41.6019C326.985 41.6019 327.688 41.5811 328.188 41.5394V41.9769Z" fill="white"/>
<path d="M341.85 55.6852C342.21 56.6175 342.731 57.0967 343.413 57.1227V57.5811C342.798 57.5394 341.996 57.5186 340.996 57.5186C339.689 57.5186 338.715 57.5394 338.08 57.5811V57.1227C338.663 57.0967 339.08 57.029 339.33 56.9144C339.58 56.805 339.705 56.5967 339.705 56.2894C339.705 56.029 339.606 55.6748 339.413 55.2269L338.038 51.4977H332.559L331.621 53.9144C331.314 54.7217 331.163 55.3415 331.163 55.7686C331.163 56.2425 331.319 56.5811 331.642 56.7894C331.975 56.9977 332.475 57.1123 333.142 57.1227V57.5811C332.278 57.5394 331.413 57.5186 330.538 57.5186C329.856 57.5186 329.288 57.5394 328.83 57.5811V57.1227C329.59 56.9457 330.189 56.2894 330.621 55.1644L335.955 41.4144H336.309L341.85 55.6852ZM337.85 51.0602L335.33 44.2686L332.746 51.0602H337.85Z" fill="white"/>
<path d="M358.457 41.9769C357.926 42.0186 357.53 42.1019 357.27 42.2269C357.02 42.3519 356.843 42.5706 356.749 42.8727C356.666 43.1644 356.624 43.5967 356.624 44.1644V57.6852H356.103L346.582 42.9769V54.9561C346.582 55.5394 346.629 55.9769 346.728 56.2686C346.822 56.5602 347.009 56.7686 347.291 56.8936C347.582 57.0186 348.03 57.0967 348.645 57.1227V57.5811C348.103 57.5394 347.332 57.5186 346.332 57.5186C345.426 57.5186 344.728 57.5394 344.228 57.5811V57.1227C344.754 57.0967 345.145 57.0186 345.395 56.8936C345.655 56.7686 345.832 56.5602 345.916 56.2686C346.009 55.9665 346.061 55.529 346.061 54.9561V43.9352C346.061 43.3675 346.009 42.9561 345.916 42.7061C345.832 42.4456 345.666 42.2686 345.416 42.1852C345.166 42.0915 344.77 42.0186 344.228 41.9769V41.5394C344.728 41.5811 345.426 41.6019 346.332 41.6019C347.009 41.6019 347.603 41.5811 348.103 41.5394L356.103 53.8727V44.1644C356.103 43.5706 356.051 43.1331 355.957 42.8519C355.858 42.5602 355.666 42.3519 355.374 42.2269C355.082 42.1019 354.634 42.0186 354.041 41.9769V41.5394C354.582 41.5811 355.353 41.6019 356.353 41.6019C357.254 41.6019 357.957 41.5811 358.457 41.5394V41.9769Z" fill="white"/>
<path d="M367.682 41.2061C368.583 41.2061 369.348 41.3415 369.973 41.6019C370.609 41.8519 371.234 42.2165 371.848 42.6852C372.015 42.8258 372.161 42.8936 372.286 42.8936C372.577 42.8936 372.77 42.4456 372.869 41.5394H373.39C373.317 42.5133 373.286 44.2477 373.286 46.7477H372.765C372.598 45.7633 372.442 45.055 372.307 44.6227C372.182 44.1956 371.958 43.7842 371.64 43.3936C371.182 42.7998 370.598 42.3519 369.89 42.0602C369.192 41.7686 368.437 41.6227 367.619 41.6227C366.645 41.6227 365.791 41.9508 365.057 42.6019C364.317 43.2581 363.744 44.1852 363.327 45.3936C362.921 46.5915 362.723 47.9925 362.723 49.6019C362.723 51.2581 362.942 52.6748 363.39 53.8519C363.833 55.0186 364.442 55.9092 365.223 56.5186C365.999 57.1331 366.874 57.4352 367.848 57.4352C368.609 57.4352 369.348 57.2998 370.057 57.0186C370.765 56.7269 371.317 56.2998 371.723 55.7269C372.025 55.2998 372.249 54.8467 372.39 54.3727C372.525 53.8883 372.65 53.1436 372.765 52.1436H373.286C373.286 54.7425 373.317 56.555 373.39 57.5811H372.869C372.827 57.0967 372.765 56.7581 372.682 56.5602C372.598 56.3519 372.478 56.2477 372.327 56.2477C372.202 56.2477 372.041 56.3102 371.848 56.4352C371.166 56.9092 370.515 57.2686 369.89 57.5186C369.275 57.7686 368.536 57.8936 367.661 57.8936C366.213 57.8936 364.952 57.5758 363.869 56.9352C362.796 56.2842 361.963 55.3415 361.369 54.1019C360.77 52.8675 360.473 51.3936 360.473 49.6852C360.473 48.0342 360.775 46.5706 361.39 45.2894C361.999 43.9977 362.853 42.9977 363.952 42.2894C365.046 41.5706 366.291 41.2061 367.682 41.2061Z" fill="white"/>
<path d="M387.415 54.6852C387.415 55.5498 387.462 56.5134 387.561 57.5811C386.529 57.5394 384.8 57.5186 382.373 57.5186C379.467 57.5186 377.279 57.5394 375.811 57.5811V57.1227C376.352 57.0967 376.748 57.0394 376.998 56.9561C377.248 56.8623 377.415 56.6852 377.498 56.4352C377.592 56.1748 377.644 55.7581 377.644 55.1852V43.9352C377.644 43.3675 377.592 42.9561 377.498 42.7061C377.415 42.4456 377.248 42.2686 376.998 42.1852C376.748 42.0915 376.352 42.0186 375.811 41.9769V41.5394C377.279 41.5811 379.467 41.6019 382.373 41.6019C384.592 41.6019 386.175 41.5811 387.123 41.5394C387.009 42.5394 386.957 43.43 386.957 44.2061C386.957 44.805 386.977 45.279 387.019 45.6227H386.498C386.399 44.6384 386.269 43.9092 386.102 43.4352C385.936 42.9509 385.649 42.6019 385.248 42.3936C384.858 42.1748 384.259 42.0602 383.457 42.0602H381.582C381.04 42.0602 380.644 42.1019 380.394 42.1852C380.144 42.2686 379.967 42.4456 379.873 42.7061C379.79 42.9561 379.748 43.3675 379.748 43.9352V49.2894H381.248C381.774 49.2894 382.175 49.1644 382.457 48.9144C382.748 48.6644 382.941 48.3727 383.04 48.0394C383.134 47.6956 383.217 47.2634 383.29 46.7477L383.352 46.2894H383.873C383.832 46.93 383.811 47.6384 383.811 48.4144V49.5186C383.811 50.2842 383.852 51.3519 383.936 52.7269H383.415C383.399 52.6331 383.352 52.2686 383.269 51.6436C383.196 51.0081 382.988 50.5342 382.644 50.2269C382.311 49.9092 381.842 49.7477 381.248 49.7477H379.748V55.1852C379.748 55.7581 379.79 56.1748 379.873 56.4352C379.967 56.6852 380.144 56.8519 380.394 56.9352C380.644 57.0186 381.04 57.0602 381.582 57.0602H383.248C384.175 57.0602 384.884 56.9352 385.373 56.6852C385.873 56.4352 386.233 56.0394 386.457 55.4977C386.675 54.9457 386.842 54.1227 386.957 53.0394H387.477C387.436 53.4561 387.415 54.0081 387.415 54.6852Z" fill="white"/>
<path d="M395.379 41.9769C394.838 42.0186 394.442 42.0915 394.192 42.1852C393.942 42.2686 393.765 42.4456 393.671 42.7061C393.588 42.9561 393.546 43.3675 393.546 43.9352V55.1852C393.546 55.7581 393.588 56.1748 393.671 56.4352C393.765 56.6852 393.942 56.8623 394.192 56.9561C394.442 57.0394 394.838 57.0967 395.379 57.1227V57.5811C394.681 57.5394 393.723 57.5186 392.504 57.5186C391.197 57.5186 390.233 57.5394 389.608 57.5811V57.1227C390.15 57.0967 390.546 57.0394 390.796 56.9561C391.046 56.8623 391.213 56.6852 391.296 56.4352C391.39 56.1748 391.442 55.7581 391.442 55.1852V43.9352C391.442 43.3675 391.39 42.9561 391.296 42.7061C391.213 42.4456 391.046 42.2686 390.796 42.1852C390.546 42.0915 390.15 42.0186 389.608 41.9769V41.5394C390.233 41.5811 391.197 41.6019 392.504 41.6019C393.713 41.6019 394.671 41.5811 395.379 41.5394V41.9769Z" fill="white"/>
<path d="M411.289 56.4561C410.94 56.9717 410.591 57.3415 410.247 57.5602C409.898 57.779 409.44 57.8936 408.872 57.8936C408.247 57.8936 407.732 57.7113 407.33 57.3519C406.924 56.9925 406.627 56.3623 406.435 55.4561L405.935 53.1852C405.752 52.3936 405.58 51.7894 405.414 51.3727C405.258 50.9456 405.023 50.6019 404.705 50.3519C404.398 50.0915 403.955 49.9561 403.372 49.9561H401.226V55.1852C401.226 55.7581 401.268 56.1748 401.351 56.4352C401.445 56.6852 401.622 56.8623 401.872 56.9561C402.122 57.0394 402.518 57.0967 403.06 57.1227V57.5811C402.362 57.5394 401.403 57.5186 400.185 57.5186C398.877 57.5186 397.914 57.5394 397.289 57.5811V57.1227C397.83 57.0967 398.226 57.0394 398.476 56.9561C398.726 56.8623 398.893 56.6852 398.976 56.4352C399.07 56.1748 399.122 55.7581 399.122 55.1852V43.9352C399.122 43.3675 399.07 42.9561 398.976 42.7061C398.893 42.4456 398.726 42.2686 398.476 42.1852C398.226 42.0915 397.83 42.0186 397.289 41.9769V41.5394C397.914 41.5811 398.83 41.6019 400.039 41.6019L402.497 41.5811C402.789 41.5706 403.112 41.5602 403.476 41.5602C405.226 41.5602 406.57 41.93 407.518 42.6644C408.461 43.3884 408.935 44.3311 408.935 45.4977C408.935 46.0967 408.794 46.6956 408.518 47.2894C408.237 47.8727 407.768 48.4092 407.101 48.8936C406.445 49.3675 405.591 49.6852 404.539 49.8519L404.81 49.8936C405.81 50.0602 406.528 50.3675 406.976 50.8102C407.435 51.2425 407.768 51.9352 407.976 52.8936L408.539 55.2061C408.69 55.904 408.851 56.3884 409.018 56.6644C409.185 56.93 409.414 57.0602 409.705 57.0602C409.955 57.0602 410.164 56.9925 410.33 56.8519C410.508 56.7165 410.716 56.4977 410.955 56.2061L411.289 56.4561ZM402.914 41.9769C402.44 41.9769 402.086 42.0342 401.851 42.1436C401.612 42.2581 401.445 42.4509 401.351 42.7269C401.268 42.9925 401.226 43.3936 401.226 43.9352V49.5186H402.747C404.247 49.5186 405.273 49.1852 405.83 48.5186C406.383 47.8519 406.664 46.93 406.664 45.7477C406.664 44.5134 406.362 43.5759 405.768 42.9352C405.185 42.2998 404.232 41.9769 402.914 41.9769Z" fill="white"/>
<path d="M423.866 55.6852C424.225 56.6175 424.746 57.0967 425.428 57.1227V57.5811C424.814 57.5394 424.012 57.5186 423.012 57.5186C421.704 57.5186 420.73 57.5394 420.095 57.5811V57.1227C420.678 57.0967 421.095 57.029 421.345 56.9144C421.595 56.805 421.72 56.5967 421.72 56.2894C421.72 56.029 421.621 55.6748 421.428 55.2269L420.053 51.4977H414.574L413.637 53.9144C413.329 54.7217 413.178 55.3415 413.178 55.7686C413.178 56.2425 413.335 56.5811 413.658 56.7894C413.991 56.9977 414.491 57.1123 415.158 57.1227V57.5811C414.293 57.5394 413.428 57.5186 412.553 57.5186C411.871 57.5186 411.303 57.5394 410.845 57.5811V57.1227C411.605 56.9457 412.204 56.2894 412.637 55.1644L417.97 41.4144H418.324L423.866 55.6852ZM419.866 51.0602L417.345 44.2686L414.762 51.0602H419.866Z" fill="white"/>
<path d="M431.098 41.2894C431.749 41.2894 432.269 41.3623 432.66 41.4977C433.046 41.6384 433.441 41.8467 433.848 42.1227C434.181 42.3311 434.436 42.4352 434.618 42.4352C434.754 42.4352 434.858 42.3623 434.931 42.2061C435.014 42.0394 435.077 41.7842 435.118 41.4352H435.639C435.566 42.3102 435.535 43.8519 435.535 46.0602H435.014C434.915 44.8415 434.561 43.8102 433.952 42.9769C433.337 42.1331 432.452 41.7061 431.285 41.7061C430.478 41.7061 429.816 41.9561 429.306 42.4561C428.79 42.9456 428.535 43.5759 428.535 44.3519C428.535 44.9248 428.665 45.4248 428.931 45.8519C429.191 46.2686 429.525 46.6331 429.931 46.9352C430.332 47.2269 430.915 47.6123 431.681 48.0811L432.327 48.4977C433.285 49.0811 434.035 49.5967 434.577 50.0394C435.129 50.4873 435.577 50.9977 435.91 51.5811C436.243 52.154 436.41 52.8259 436.41 53.6019C436.41 54.9769 435.957 56.0394 435.056 56.7894C434.15 57.529 433.004 57.8936 431.618 57.8936C430.879 57.8936 430.285 57.8154 429.827 57.6644C429.368 57.5134 428.921 57.3102 428.493 57.0602C428.171 56.8519 427.921 56.7477 427.743 56.7477C427.603 56.7477 427.493 56.8311 427.41 56.9977C427.337 57.154 427.285 57.404 427.243 57.7477H426.723C426.775 56.9144 426.806 55.0967 426.806 52.2894H427.327C427.436 53.8207 427.811 55.0602 428.452 56.0186C429.103 56.9665 430.103 57.4352 431.452 57.4352C432.269 57.4352 432.962 57.1852 433.535 56.6852C434.103 56.1852 434.389 55.4352 434.389 54.4352C434.389 53.5915 434.103 52.8727 433.535 52.2894C432.978 51.6957 432.087 51.029 430.868 50.2894C429.962 49.7373 429.233 49.2477 428.681 48.8311C428.139 48.4144 427.691 47.9092 427.348 47.3102C426.999 46.7165 426.827 46.0134 426.827 45.2061C426.827 43.9456 427.228 42.9769 428.035 42.3102C428.853 41.6331 429.874 41.2894 431.098 41.2894Z" fill="white"/>
<path d="M154.081 96.0052V-1.64884e-06Z" fill="white"/>
<path d="M154.081 96.0052V-1.64884e-06" stroke="white" stroke-width="1.00082"/>
</svg>
